<svg width="24" height="24" viewBox="0 0 24 24" fill="none" xmlns="http://www.w3.org/2000/svg">
<rect x="2.5" y="2.5" width="19" height="19" rx="3.5" fill="#BF79D8" stroke="#BF79D8"/>
<path d="M8.50195 12.498C8.43164 12.498 8.36523 12.4863 8.30273 12.4629C8.24414 12.4355 8.19141 12.4004 8.14453 12.3574C8.10156 12.3105 8.06641 12.2578 8.03906 12.1992C8.01172 12.1367 7.99805 12.0703 7.99805 12C7.99805 11.9297 8.01172 11.8652 8.03906 11.8066C8.06641 11.7441 8.10156 11.6914 8.14453 11.6484C8.19141 11.6016 8.24414 11.5664 8.30273 11.543C8.36523 11.5156 8.43164 11.502 8.50195 11.502H15.498C15.5684 11.502 15.6328 11.5156 15.6914 11.543C15.7539 11.5664 15.8066 11.6016 15.8496 11.6484C15.8965 11.6914 15.9336 11.7441 15.9609 11.8066C15.9883 11.8652 16.002 11.9297 16.002 12C16.002 12.0703 15.9883 12.1367 15.9609 12.1992C15.9336 12.2578 15.8965 12.3105 15.8496 12.3574C15.8066 12.4004 15.7539 12.4355 15.6914 12.4629C15.6328 12.4863 15.5684 12.498 15.498 12.498H8.50195Z" fill="black"/>
</svg>
