<svg width="24" height="24" viewBox="0 0 24 24" fill="none" xmlns="http://www.w3.org/2000/svg">
<rect x="2.5" y="2.5" width="19" height="19" rx="3.5" fill="#AF70C6" stroke="#AF70C6"/>
<path d="M7.00195 12.498C7.00195 12.3613 7.05078 12.2441 7.14844 12.1465C7.24609 12.0488 7.36328 12 7.5 12C7.63672 12 7.75391 12.0488 7.85156 12.1465L10.5 14.7949L16.1484 9.14648C16.2461 9.04883 16.3633 9 16.5 9C16.5703 9 16.6348 9.01367 16.6934 9.04102C16.7559 9.06445 16.8086 9.09961 16.8516 9.14648C16.8984 9.18945 16.9355 9.24219 16.9629 9.30469C16.9902 9.36328 17.0039 9.42773 17.0039 9.49805C17.0039 9.63477 16.9531 9.75391 16.8516 9.85547L10.8516 15.8555C10.7539 15.9531 10.6367 16.002 10.5 16.002C10.3633 16.002 10.2461 15.9531 10.1484 15.8555L7.14844 12.8555C7.05078 12.7578 7.00195 12.6387 7.00195 12.498Z" fill="black"/>
</svg>
