<svg width="24" height="24" viewBox="0 0 24 24" fill="none" xmlns="http://www.w3.org/2000/svg">
<circle cx="12" cy="12" r="8.25" stroke="#8A8A8A" stroke-width="1.5"/>
<path d="M11.0573 14.1364V14.0767C11.0639 13.4437 11.1302 12.9399 11.2561 12.5653C11.3821 12.1908 11.5611 11.8875 11.7931 11.6555C12.0251 11.4235 12.3035 11.2098 12.6283 11.0142C12.8238 10.8949 12.9995 10.754 13.1553 10.5916C13.311 10.4259 13.4337 10.2353 13.5232 10.0199C13.616 9.80445 13.6624 9.56581 13.6624 9.30398C13.6624 8.97917 13.5861 8.69744 13.4337 8.45881C13.2812 8.22017 13.0774 8.03622 12.8222 7.90696C12.567 7.7777 12.2836 7.71307 11.972 7.71307C11.7003 7.71307 11.4384 7.76941 11.1865 7.8821C10.9346 7.99479 10.7242 8.17211 10.5551 8.41406C10.3861 8.65601 10.2883 8.97254 10.2618 9.36364H9.00897C9.03548 8.80019 9.18132 8.31794 9.44647 7.9169C9.71493 7.51586 10.0679 7.20928 10.5054 6.99716C10.9462 6.78504 11.4351 6.67898 11.972 6.67898C12.5554 6.67898 13.0625 6.79498 13.4933 7.02699C13.9275 7.259 14.2623 7.57718 14.4976 7.98153C14.7362 8.38589 14.8556 8.84659 14.8556 9.36364C14.8556 9.72822 14.7992 10.058 14.6865 10.353C14.5771 10.648 14.4181 10.9115 14.2093 11.1435C14.0038 11.3755 13.7552 11.581 13.4635 11.7599C13.1718 11.9422 12.9382 12.1345 12.7625 12.3366C12.5869 12.5355 12.4593 12.7725 12.3797 13.0476C12.3002 13.3227 12.2571 13.6657 12.2504 14.0767V14.1364H11.0573ZM11.6936 17.0795C11.4484 17.0795 11.2379 16.9917 11.0622 16.8161C10.8866 16.6404 10.7987 16.4299 10.7987 16.1847C10.7987 15.9394 10.8866 15.7289 11.0622 15.5533C11.2379 15.3776 11.4484 15.2898 11.6936 15.2898C11.9389 15.2898 12.1494 15.3776 12.325 15.5533C12.5007 15.7289 12.5885 15.9394 12.5885 16.1847C12.5885 16.3471 12.5471 16.4962 12.4642 16.6321C12.3847 16.768 12.277 16.8774 12.1411 16.9602C12.0085 17.0398 11.8593 17.0795 11.6936 17.0795Z" fill="#8A8A8A"/>
</svg>
