<svg width="24" height="24" viewBox="0 0 24 24" fill="none" xmlns="http://www.w3.org/2000/svg">
<g clip-path="url(#clip0_2048_115)">
<path d="M12.2165 2.875L20.8768 17.875C20.973 18.0417 20.8527 18.25 20.6603 18.25H3.33975C3.1473 18.25 3.02701 18.0417 3.12324 17.875L11.7835 2.875C11.8797 2.70833 12.1203 2.70833 12.2165 2.875Z" stroke="#BB8733" stroke-width="1.5"/>
<path d="M12.6767 7.5L12.5773 13.0001H11.4239L11.3244 7.5H12.6767ZM12.0006 15.8949C11.7553 15.8949 11.5449 15.8071 11.3692 15.6314C11.1935 15.4557 11.1057 15.2453 11.1057 15C11.1057 14.7547 11.1935 14.5443 11.3692 14.3686C11.5449 14.1929 11.7553 14.1051 12.0006 14.1051C12.2459 14.1051 12.4563 14.1929 12.632 14.3686C12.8077 14.5443 12.8955 14.7547 12.8955 15C12.8955 15.1624 12.8541 15.3116 12.7712 15.4474C12.6917 15.5833 12.5839 15.6927 12.448 15.7756C12.3155 15.8551 12.1663 15.8949 12.0006 15.8949Z" fill="#BB8733"/>
</g>
<defs>
<clipPath id="clip0_2048_115">
<rect width="24" height="24" fill="white"/>
</clipPath>
</defs>
</svg>
